<svg width="64" height="64" viewBox="0 0 64 64" xmlns="http://www.w3.org/2000/svg">
  <!-- Shield with graph -->
  <path d="M56 8H8C5.8 8 4 9.8 4 12v40c0 2.2 1.8 4 4 4h48c2.2 0 4-1.8 4-4V12c0-2.2-1.8-4-4-4z" fill="#0052CC"/>
  <!-- Graph bars -->
  <rect x="14" y="40" width="8" height="10" fill="white"/>
  <rect x="28" y="30" width="8" height="20" fill="white"/>
  <rect x="42" y="20" width="8" height="30" fill="white"/>
  <!-- Upward arrow -->
  <path d="M14 25L42 15L36 28" stroke="white" stroke-width="3" fill="none"/>
  <path d="M58 12L62 8L58 4" stroke="#FF6B35" stroke-width="2" stroke-linecap="round" stroke-linejoin="round"/>
  <path d="M6 52L2 56L6 60" stroke="#FF6B35" stroke-width="2" stroke-linecap="round" stroke-linejoin="round"/>
</svg> 